<svg width="90" height="50" viewBox="0 0 90 50" fill="none" xmlns="http://www.w3.org/2000/svg">
<g clip-path="url(#clip0)">
<path d="M73.8548 50H16.1936C15.1013 50 14.0537 49.5661 13.2813 48.7937C12.5089 48.0213 12.075 46.9737 12.075 45.8814V4.69469C12.075 3.60235 12.5089 2.55475 13.2813 1.78235C14.0537 1.00995 15.1013 0.576019 16.1936 0.576019H73.8548C74.9472 0.576019 75.9948 1.00995 76.7672 1.78235C77.5396 2.55475 77.9735 3.60235 77.9735 4.69469V45.8814C77.9735 46.9737 77.5396 48.0213 76.7672 48.7937C75.9948 49.5661 74.9472 50 73.8548 50Z" fill="#EAEAEA"/>
<path d="M20.3123 50H16.1936C15.1013 50 14.0537 49.5661 13.2813 48.7937C12.5089 48.0213 12.075 46.9737 12.075 45.8814V4.69469C12.075 4.15382 12.1815 3.61824 12.3885 3.11854C12.5954 2.61884 12.8988 2.1648 13.2813 1.78235C13.6637 1.39989 14.1178 1.09652 14.6175 0.889534C15.1172 0.682551 15.6528 0.576019 16.1936 0.576019C16.7345 0.576019 17.2701 0.682551 17.7698 0.889534C18.2695 1.09652 18.7235 1.39989 19.106 1.78235C19.4884 2.1648 19.7918 2.61884 19.9988 3.11854C20.2058 3.61824 20.3123 4.15382 20.3123 4.69469V50Z" fill="#898FEB"/>
<path d="M69.7367 50H73.8554C74.9477 50 75.9953 49.5661 76.7677 48.7937C77.5401 48.0213 77.974 46.9737 77.974 45.8814V4.69469C77.974 3.60235 77.5401 2.55475 76.7677 1.78235C75.9953 1.00995 74.9477 0.576019 73.8554 0.576019C72.763 0.576019 71.7154 1.00995 70.943 1.78235C70.1706 2.55475 69.7367 3.60235 69.7367 4.69469V50Z" fill="#6970D8"/>
<path d="M76.2147 8.07195C76.6582 7.76221 77.0364 7.36815 77.3276 6.91226C77.6188 6.45638 77.8174 5.94759 77.912 5.41496C78.0066 4.88234 77.9953 4.33629 77.8789 3.808C77.7625 3.27972 77.5431 2.77954 77.2334 2.33603C76.9236 1.89252 76.5296 1.51435 76.0737 1.22313C75.6178 0.93191 75.109 0.733334 74.5764 0.63874C74.0437 0.544147 73.4977 0.555389 72.9694 0.671825C72.4411 0.78826 71.9409 1.00761 71.4974 1.31735L45.0281 20.5886L45.0253 20.5899L45.0226 20.5886L18.5532 1.31735C17.6575 0.691803 16.55 0.4477 15.4743 0.63874C14.3986 0.82978 13.4428 1.44031 12.8173 2.33603C12.1917 3.23174 11.9476 4.33927 12.1387 5.41496C12.3297 6.49066 12.9403 7.4464 13.836 8.07195L13.7261 7.99095L45.0253 30.7795L76.2147 8.07195ZM76.3259 7.99095L45.0253 30.7795L76.3259 7.99095Z" fill="#898FEB"/>
<path d="M73.8552 0.575994C72.978 0.575994 72.1639 0.850572 71.4966 1.31735L45.0273 20.5886L45.0246 20.59L45.0218 20.5886L18.5525 1.31735C17.8613 0.833553 17.0376 0.574672 16.1939 0.575994H73.8552Z" fill="#EFEFEF"/>
<path d="M20.3142 14.563L13.3729 7.68753L13.3702 7.69302C13.5157 7.83031 13.6708 7.95662 13.8356 8.07194L13.7258 7.99094L20.3156 12.7892L20.3142 14.6124" fill="#6970D8"/>
<path d="M40.4504 34.3367L20.3129 50L20.3143 14.3914L40.4463 34.3312" fill="#E3E3E3"/>
<path d="M40.4497 34.3366L45.0242 30.7795L20.3135 12.7892V14.3913L40.4456 34.3311L40.4497 34.3366Z" fill="url(#paint0_linear)"/>
<path d="M56.0912 50H69.7364V12.7879L45.0243 30.7796L40.4457 34.3312L56.0912 50Z" fill="url(#paint1_linear)"/>
</g>
<defs>
<linearGradient id="paint0_linear" x1="20.3135" y1="23.5636" x2="45.0242" y2="23.5636" gradientUnits="userSpaceOnUse">
<stop stop-color="#C8C8C8"/>
<stop offset="1" stop-color="#CDCDCD"/>
</linearGradient>
<linearGradient id="paint1_linear" x1="40.4457" y1="31.3933" x2="69.7364" y2="31.3933" gradientUnits="userSpaceOnUse">
<stop stop-color="#D9D9D9"/>
<stop offset="1" stop-color="#E2E2E2"/>
</linearGradient>
<clipPath id="clip0">
<rect width="89.67" height="50" fill="white"/>
</clipPath>
</defs>
</svg>
