<svg width="120" height="35" viewBox="0 0 120 35" fill="none" xmlns="http://www.w3.org/2000/svg">
<g clip-path="url(#clip0)">
<path d="M0.013855 6.50873H4.19792V15.8194H13.0224V6.50873H17.2118V29.3636H13.0224V19.8574H4.19792V29.3636H0.013855V6.50873ZM30.4669 21.9194C30.4669 23.8326 28.9107 25.3895 27.001 25.3895C25.0906 25.3895 23.5353 23.8326 23.5353 21.9194V12.0796H19.5673V21.9194C19.5673 26.0245 22.9022 29.3636 27.001 29.3636C31.0988 29.3636 34.4335 26.0245 34.4335 21.9194V12.0796H30.4669V21.9194ZM45.5105 12.1949C43.5422 12.1949 42.1683 12.7669 40.8415 14.0715V6.50873H36.8607V20.5245C36.8607 25.7707 40.6477 29.3636 44.9023 29.3636C49.6322 29.3636 53.7764 25.7066 53.7764 20.7795C53.7764 15.9147 49.9549 12.1949 45.5105 12.1949ZM45.6094 25.6749C42.912 25.6749 40.8492 23.4185 40.8492 20.7795C40.8492 18.1399 42.912 15.8828 45.6094 15.8828C47.895 15.8828 49.9589 18.1399 49.9589 20.7795C49.9589 23.4185 47.895 25.6749 45.6094 25.6749ZM60.4624 13.1994C60.4624 11.1951 61.7958 10.5596 63.2555 10.5596C64.4306 10.5596 65.9857 11.4498 67.0006 12.531L69.6028 9.47903C68.3023 7.7306 65.6682 6.52211 63.5096 6.52211C59.1921 6.52211 56.0813 9.03394 56.0813 13.1994C56.0813 20.925 65.5728 18.4761 65.5728 22.8011C65.5728 24.135 64.2717 25.3125 62.7807 25.3125C60.4308 25.3125 59.6686 24.1678 58.5898 22.9593L55.7007 25.9475C57.5428 28.2051 59.8275 29.3502 62.5578 29.3502C66.6523 29.3502 69.9537 26.8067 69.9537 22.8319C69.9537 14.248 60.4624 16.919 60.4624 13.1994ZM80.4335 11.9709C76.1794 11.9709 72.3919 15.5617 72.3919 20.809V34.861H76.3725V27.2623C77.6996 28.5659 79.0728 29.1389 81.0417 29.1389C85.486 29.1389 89.3079 25.4195 89.3079 20.5548C89.3079 15.6269 85.1625 11.9709 80.4335 11.9709ZM81.1409 25.4515C78.4437 25.4515 76.3807 23.192 76.3807 20.5548C76.3807 17.9153 78.4437 15.6581 81.1409 15.6581C83.426 15.6581 85.4902 17.9153 85.4902 20.5548C85.4902 23.192 83.426 25.4515 81.1409 25.4515ZM118.61 25.6749C116.262 25.6749 115.595 24.658 115.595 23.0995V16.2006H119.245V12.7038H115.595V8.09329L111.565 9.9051V23.958C111.565 27.5511 114.04 29.3636 117.435 29.3636C117.943 29.3636 118.642 29.3307 119.023 29.2366L120.008 25.6125C119.563 25.6432 119.055 25.6749 118.61 25.6749Z" fill="#898FEB"/>
<path d="M108.112 16.404C107.349 15.0889 106.276 14.0346 104.934 13.2409C103.931 12.6562 102.891 12.285 101.719 12.1256V7.94708C102.891 7.4487 103.618 6.34561 103.618 5.0587C103.618 3.30465 102.214 1.88323 100.464 1.88323C98.7127 1.88323 97.2837 3.30465 97.2837 5.0587C97.2837 6.34561 97.969 7.4487 99.1409 7.94708V12.1275C98.2034 12.2632 97.2312 12.5559 96.3434 13.0057C94.5301 11.6263 88.584 7.10103 85.1056 4.45798C85.1881 4.16008 85.2516 3.85303 85.2516 3.52907C85.2516 1.58627 83.6808 0.0115662 81.7404 0.0115662C79.8001 0.0115662 78.23 1.58627 78.23 3.52907C78.23 5.47163 79.8017 7.04681 81.7421 7.04681C82.404 7.04681 83.0161 6.8529 83.5444 6.53411L84.2785 7.09188L94.3651 14.371C93.8319 14.8614 93.3352 15.4192 92.9379 16.045C92.1329 17.3209 91.6409 18.7247 91.6409 20.256V20.5755C91.6409 21.6504 91.8448 22.6652 92.1922 23.6186C92.498 24.451 92.9452 25.2078 93.499 25.8921L90.1515 29.2533C89.6663 29.0724 89.1394 29.0353 88.6338 29.1464C88.1281 29.2574 87.6651 29.512 87.3001 29.8796C87.0473 30.1315 86.847 30.4312 86.7107 30.7612C86.5744 31.0912 86.5048 31.4451 86.506 31.8022C86.5062 32.5283 86.7886 33.2107 87.3015 33.7241C87.5528 33.9775 87.8519 34.1783 88.1813 34.3151C88.5107 34.4519 88.8639 34.5218 89.2205 34.5208C89.5772 34.5218 89.9306 34.4518 90.2601 34.3151C90.5896 34.1783 90.8888 33.9774 91.1403 33.7241C91.3929 33.4722 91.5932 33.1726 91.7295 32.8428C91.8659 32.5129 91.9357 32.1592 91.9348 31.8022C91.9348 31.5212 91.8915 31.247 91.8099 30.9864L95.27 27.5203C95.7444 27.8485 96.2567 28.1248 96.8075 28.3631C97.8938 28.8335 99.0929 29.1202 100.405 29.1202H100.646C102.096 29.1202 103.465 28.7788 104.751 28.0807C106.107 27.3429 107.168 26.3339 107.97 25.0458C108.775 23.7542 109.219 22.3272 109.219 20.7572V20.6788C109.219 19.1344 108.862 17.7094 108.112 16.404ZM103.885 23.6749C102.946 24.7202 101.866 25.3642 100.646 25.3642H100.445C99.7475 25.3642 99.0657 25.1712 98.3982 24.8202C97.6458 24.4338 97.074 23.8827 96.6059 23.1847C96.1222 22.4997 95.8597 21.7518 95.8597 20.9588V20.718C95.8597 19.9384 96.009 19.1991 96.3854 18.501C96.7878 17.7378 97.3313 17.1444 98.0541 16.6725C98.7638 16.204 99.5218 15.9741 100.366 15.9741H100.445C101.21 15.9741 101.935 16.1253 102.619 16.4758C103.315 16.8495 103.885 17.3601 104.326 18.0317C104.755 18.7036 105.01 19.4283 105.092 20.2177C105.105 20.3818 105.111 20.5499 105.111 20.7105C105.111 21.7819 104.702 22.7742 103.885 23.6749Z" fill="#898FEB"/>
</g>
<defs>
<clipPath id="clip0">
<rect width="120" height="35" fill="white"/>
</clipPath>
</defs>
</svg>
