<svg width="59" height="60" viewBox="0 0 59 60" fill="none" xmlns="http://www.w3.org/2000/svg">
<path fill-rule="evenodd" clip-rule="evenodd" d="M-7.62939e-06 6.69062L34.5867 0.00997925L34.4666 59.99L-7.62939e-06 52.8377V6.69062ZM12.2636 37.8384C9.6479 34.7768 8.91895 29.9657 10.171 25.9693C11.9119 20.4121 16.3285 18.534 20.0248 19.8204C22.1344 20.5579 24.0126 22.3331 25.0159 25.0517C25.4962 26.3552 25.7535 27.8474 25.7706 29.3654C25.8049 32.0925 24.8616 35.2999 22.992 37.5382C20.1191 40.9686 15.248 41.3202 12.2721 37.8384H12.2636ZM14.9564 34.9311C13.67 33.0187 13.3184 30.0171 13.9273 27.5215C14.7763 24.0569 16.946 22.882 18.7555 23.6881C19.7932 24.1512 20.7108 25.2575 21.1997 26.9555C21.4312 27.7702 21.5598 28.6964 21.5684 29.6484C21.5856 31.3464 21.1225 33.3532 20.2049 34.751C18.7984 36.895 16.4143 37.1094 14.9564 34.9397V34.9311ZM36.8421 12.6509H56.9184C58.0418 12.6509 58.9594 13.5685 58.9594 14.692V15.4295L43.1797 26.0722C42.9739 26.2094 42.4679 26.6039 42.0477 26.8698C41.4302 27.2728 41.3874 27.1957 40.7356 26.8269C39.7322 26.2695 37.9999 25.086 36.8336 24.2798V12.6509H36.8421ZM58.968 20.1548V41.6289C58.968 43.3441 57.5615 44.7592 55.8378 44.7592H36.8421V28.8765C37.9827 29.6312 39.5007 30.626 40.4354 31.2006C41.1901 31.6637 41.3273 31.8781 42.1678 31.3893C42.5537 31.1663 42.931 30.8747 43.1883 30.7032L58.968 20.1634V20.1548Z" fill="#898FEB"/>
</svg>
