<svg width="86" height="60" viewBox="0 0 86 60" fill="none" xmlns="http://www.w3.org/2000/svg">
<g clip-path="url(#clip0)">
<path d="M35.7881 6.54547C38.5617 3.66517 42.423 1.87872 46.6936 1.87872C52.3706 1.87872 57.3235 5.03376 59.9612 9.7175C62.2533 8.69682 64.7905 8.129 67.4598 8.129C77.6989 8.129 86 16.4746 86 26.7688C86 37.0642 77.6989 45.4098 67.4598 45.4098C66.2334 45.4105 65.01 45.289 63.8079 45.0471C61.4852 49.1765 57.059 51.9665 51.9786 51.9665C49.8518 51.9665 47.8403 51.477 46.0493 50.6064C43.6946 56.1265 38.2088 59.997 31.8151 59.997C25.1569 59.997 19.4823 55.798 17.3042 49.9091C16.3523 50.1106 15.3661 50.2156 14.3542 50.2156C6.42676 50.2157 0 43.7444 0 35.7603C0 30.4099 2.8875 25.7383 7.17769 23.2389C6.29444 21.2133 5.80315 18.9776 5.80315 16.6271C5.80315 7.44526 13.2822 0.00210571 22.507 0.00210571C27.9231 0.00210571 32.7364 2.56864 35.7881 6.54547Z" fill="#898FEB"/>
<path d="M12.4563 31.1145C12.4024 31.255 12.4759 31.2843 12.493 31.3087C12.6547 31.4259 12.8189 31.5102 12.9843 31.6042C13.8614 32.0681 14.6897 32.2036 15.5558 32.2036C17.3199 32.2036 18.415 31.2683 18.415 29.7628V29.7336C18.415 28.3415 17.179 27.8361 16.0188 27.471L15.8682 27.4222C14.9935 27.1389 14.2388 26.8948 14.2388 26.3209V26.2904C14.2388 25.7995 14.6799 25.4381 15.3635 25.4381C16.123 25.4381 17.0247 25.6896 17.6053 26.0095C17.6053 26.0095 17.7756 26.1194 17.8381 25.9546C17.8724 25.8666 18.1664 25.0779 18.1971 24.9924C18.2301 24.8996 18.1713 24.8312 18.1113 24.7946C17.4486 24.3928 16.5322 24.1181 15.584 24.1181L15.4076 24.1193C13.793 24.1193 12.666 25.0912 12.666 26.4844V26.5137C12.666 27.9825 13.9094 28.4587 15.0745 28.7909L15.2619 28.8483C16.1109 29.1083 16.8423 29.3318 16.8423 29.9276V29.957C16.8423 30.5015 16.367 30.9069 15.6 30.9069C15.3023 30.9069 14.3529 30.9008 13.3275 30.2548C13.2037 30.1827 13.1315 30.1303 13.036 30.0729C12.9858 30.0411 12.8596 29.9861 12.8045 30.1523L12.4563 31.1145ZM38.2819 31.1145C38.228 31.255 38.3015 31.2843 38.3186 31.3087C38.4803 31.4259 38.6446 31.5102 38.8098 31.6042C39.687 32.0681 40.5153 32.2036 41.3813 32.2036C43.1454 32.2036 44.2407 31.2683 44.2407 29.7628V29.7336C44.2407 28.3415 43.0046 27.8361 41.8444 27.471L41.6937 27.4222C40.819 27.1389 40.0643 26.8948 40.0643 26.3209V26.2904C40.0643 25.7995 40.5053 25.4381 41.1889 25.4381C41.9485 25.4381 42.8501 25.6896 43.4309 26.0095C43.4309 26.0095 43.6011 26.1194 43.6635 25.9546C43.6978 25.8666 43.9919 25.0779 44.0225 24.9924C44.0557 24.8996 43.9968 24.8312 43.9368 24.7946C43.274 24.3928 42.3576 24.1181 41.4095 24.1181L41.233 24.1193C39.6184 24.1193 38.4913 25.0912 38.4913 26.4844V26.5137C38.4913 27.9825 39.7348 28.4587 40.8998 28.7909L41.0872 28.8483C41.9362 29.1083 42.6689 29.3318 42.6689 29.9276V29.957C42.6689 30.5015 42.1923 30.9069 41.4254 30.9069C41.1278 30.9069 40.1784 30.9008 39.153 30.2548C39.0292 30.1827 38.9558 30.1327 38.8627 30.0729C38.8308 30.0521 38.6813 29.9947 38.6298 30.1523L38.2819 31.1145ZM55.9124 28.1656C55.9124 29.0166 55.7531 29.6869 55.4395 30.1607C55.1295 30.6296 54.6603 30.8579 54.0063 30.8579C53.3509 30.8579 52.8841 30.6308 52.579 30.1607C52.2702 29.6882 52.1136 29.0166 52.1136 28.1656C52.1136 27.3158 52.2702 26.6466 52.579 26.1777C52.8841 25.7138 53.3509 25.4879 54.0063 25.4879C54.6604 25.4879 55.1296 25.7138 55.4408 26.1777C55.7532 26.6465 55.9124 27.3157 55.9124 28.1656ZM57.385 26.588C57.2403 26.1008 57.015 25.671 56.7149 25.3133C56.4147 24.9543 56.035 24.6662 55.584 24.4562C55.1344 24.2474 54.6028 24.1412 54.0063 24.1412C53.4084 24.1412 52.8767 24.2474 52.4271 24.4562C51.9763 24.6662 51.5965 24.9544 51.2952 25.3133C50.9963 25.6723 50.7708 26.1021 50.6251 26.588C50.4817 27.0727 50.4094 27.6026 50.4094 28.1656C50.4094 28.7285 50.4817 29.2596 50.6251 29.7431C50.7708 30.229 50.9951 30.6589 51.2964 31.0178C51.5965 31.3768 51.9776 31.6637 52.4272 31.8676C52.8779 32.0715 53.4084 32.1753 54.0063 32.1753C54.6029 32.1753 55.1334 32.0715 55.5841 31.8676C56.0338 31.6637 56.4147 31.3767 56.715 31.0178C57.015 30.66 57.2404 30.2302 57.385 29.7431C57.5297 29.2584 57.6019 28.7272 57.6019 28.1656C57.6019 27.6039 57.5295 27.0727 57.385 26.588ZM69.4772 30.6306C69.4282 30.4877 69.2898 30.5414 69.2898 30.5414C69.0754 30.6233 68.8475 30.699 68.605 30.7368C68.3587 30.7746 68.0879 30.7942 67.7976 30.7942C67.0847 30.7942 66.5187 30.583 66.1132 30.1654C65.7065 29.7478 65.4786 29.0726 65.481 28.1593C65.4835 27.3278 65.6843 26.7026 66.0458 26.2265C66.4048 25.7528 66.9512 25.5097 67.6801 25.5097C68.2878 25.5097 68.7508 25.5793 69.2358 25.7319C69.2358 25.7319 69.3522 25.7819 69.4073 25.6306C69.5359 25.274 69.6315 25.0188 69.7687 24.6269C69.8079 24.5158 69.7124 24.4682 69.678 24.4547C69.4869 24.3802 69.0361 24.2594 68.6955 24.2081C68.377 24.1593 68.0046 24.1336 67.5905 24.1336C66.9718 24.1336 66.4205 24.2387 65.949 24.4487C65.4785 24.6574 65.0792 24.9456 64.7631 25.3046C64.447 25.6636 64.2069 26.0933 64.0465 26.5793C63.8872 27.064 63.8064 27.5964 63.8064 28.1593C63.8064 29.3766 64.1359 30.3607 64.7865 31.0811C65.4381 31.804 66.417 32.1715 67.6936 32.1715C68.4482 32.1715 69.2225 32.0189 69.7787 31.8003C69.7787 31.8003 69.8853 31.749 69.8387 31.6258L69.4772 30.6306ZM72.0537 27.3503C72.1235 26.8778 72.2546 26.4846 72.4567 26.1782C72.7618 25.713 73.2273 25.4578 73.8815 25.4578C74.5358 25.4578 74.9682 25.7142 75.2781 26.1782C75.4839 26.4846 75.5734 26.8949 75.6089 27.3503H72.0537ZM77.0115 26.3112C76.8866 25.8411 76.5766 25.3661 76.3733 25.1487C76.0523 24.8044 75.7388 24.5639 75.4276 24.4296C75.0208 24.2562 74.5332 24.1414 73.9991 24.1414C73.3768 24.1414 72.812 24.2453 72.3539 24.4601C71.8945 24.675 71.5087 24.9681 71.206 25.3332C70.9033 25.697 70.6755 26.1305 70.5309 26.6225C70.3851 27.1122 70.3116 27.6458 70.3116 28.2085C70.3116 28.7813 70.3876 29.3148 70.5383 29.7946C70.6902 30.2782 70.9327 30.7043 71.2611 31.0571C71.5881 31.4125 72.0096 31.6909 72.5143 31.8849C73.0154 32.0779 73.6243 32.178 74.3238 32.1767C75.7633 32.1718 76.5215 31.852 76.8339 31.6798C76.8891 31.6493 76.9418 31.5956 76.8755 31.4417L76.5497 30.532C76.5008 30.3965 76.3623 30.4466 76.3623 30.4466C76.0057 30.5784 75.4987 30.8153 74.3164 30.8129C73.5434 30.8117 72.97 30.5846 72.611 30.2292C72.2423 29.8654 72.0622 29.3305 72.0303 28.576L77.0151 28.5809C77.0151 28.5809 77.1462 28.5785 77.1598 28.4514C77.1647 28.3979 77.3313 27.4308 77.0115 26.3112ZM32.1326 27.3503C32.2036 26.8778 32.3335 26.4846 32.5356 26.1782C32.8406 25.713 33.3062 25.4578 33.9604 25.4578C34.6145 25.4578 35.047 25.7142 35.3581 26.1782C35.5627 26.4846 35.6521 26.8949 35.6877 27.3503H32.1326ZM37.0892 26.3112C36.9642 25.8411 36.6555 25.3661 36.4522 25.1487C36.1312 24.8044 35.8176 24.5639 35.5065 24.4296C35.0997 24.2562 34.6122 24.1414 34.078 24.1414C33.4569 24.1414 32.8909 24.2453 32.4328 24.4601C31.9734 24.675 31.5875 24.9681 31.2849 25.3332C30.9823 25.697 30.7544 26.1305 30.6099 26.6225C30.4654 27.1122 30.3906 27.6458 30.3906 28.2085C30.3906 28.7813 30.4666 29.3148 30.6173 29.7946C30.7692 30.2782 31.0118 30.7043 31.3401 31.0571C31.6672 31.4125 32.0886 31.6909 32.5933 31.8849C33.0944 32.0779 33.7032 32.178 34.4028 32.1767C35.8422 32.1718 36.6005 31.852 36.9129 31.6798C36.9681 31.6493 37.0207 31.5956 36.9546 31.4417L36.63 30.532C36.5797 30.3965 36.4414 30.4466 36.4414 30.4466C36.0849 30.5784 35.5789 30.8153 34.3942 30.8129C33.6225 30.8117 33.0491 30.5846 32.6902 30.2292C32.3214 29.8654 32.1414 29.3305 32.1094 28.576L37.0942 28.5809C37.0942 28.5809 37.2253 28.5785 37.2388 28.4514C37.2435 28.3979 37.4101 27.4308 37.0892 26.3112ZM21.358 30.6034C21.1632 30.4483 21.1362 30.4092 21.0701 30.3091C20.9721 30.1565 20.9219 29.9391 20.9219 29.6632C20.9219 29.226 21.0664 28.9123 21.3666 28.701C21.363 28.7023 21.7954 28.3287 22.8121 28.342C23.5263 28.3518 24.1646 28.4568 24.1646 28.4568V30.7157H24.1658C24.1658 30.7157 23.5324 30.8512 22.8195 30.8939C21.8051 30.955 21.3543 30.6022 21.358 30.6034ZM23.3413 27.1125C23.1392 27.0979 22.877 27.0893 22.5634 27.0893C22.1358 27.0893 21.723 27.143 21.3359 27.2468C20.9463 27.3505 20.5959 27.513 20.2946 27.7278C19.9936 27.9419 19.7463 28.2222 19.5718 28.5471C19.3954 28.8744 19.3059 29.2602 19.3059 29.6925C19.3059 30.132 19.3819 30.5142 19.5338 30.8268C19.6858 31.1406 19.905 31.4019 20.1843 31.6034C20.4611 31.8049 20.803 31.9525 21.1998 32.0417C21.5907 32.1308 22.0341 32.1759 22.5193 32.1759C23.0301 32.1759 23.5397 32.1345 24.0334 32.0502C24.5222 31.9671 25.1225 31.8462 25.2891 31.8085C25.4059 31.7804 25.5223 31.7507 25.6383 31.7193C25.762 31.6889 25.7522 31.5569 25.7522 31.5569L25.7497 27.0136C25.7497 26.0172 25.4827 25.2785 24.9571 24.8206C24.434 24.364 23.6634 24.1331 22.6675 24.1331C22.2938 24.1331 21.6923 24.1845 21.3321 24.2565C21.3321 24.2565 20.2431 24.4665 19.7947 24.8157C19.7947 24.8157 19.6967 24.8768 19.7506 25.0136L20.1034 25.9587C20.1475 26.0808 20.2664 26.0393 20.2664 26.0393C20.2664 26.0393 20.3044 26.0246 20.3485 25.9989C21.3078 25.4788 22.5206 25.4947 22.5206 25.4947C23.0596 25.4947 23.4737 25.6021 23.753 25.8157C24.0249 26.0233 24.1633 26.3371 24.1633 26.9988V27.2089C23.7346 27.1479 23.3413 27.1125 23.3413 27.1125ZM63.546 24.5526C63.5838 24.4402 63.5043 24.3865 63.4712 24.3743C63.3867 24.3414 62.9628 24.2522 62.6357 24.2314C62.0098 24.1936 61.6619 24.2986 61.3506 24.4378C61.0419 24.577 60.6989 24.8016 60.5077 25.0568V24.4525C60.5077 24.3682 60.4477 24.301 60.3644 24.301H59.0866C59.0034 24.301 58.9434 24.3681 58.9434 24.4525V31.8627C58.9434 31.9457 59.012 32.0141 59.0952 32.0141H60.4049C60.445 32.0139 60.4833 31.9978 60.5116 31.9694C60.5398 31.941 60.5556 31.9027 60.5555 31.8627V28.1607C60.5555 27.6637 60.6107 27.168 60.721 26.8567C60.8287 26.5489 60.9758 26.3023 61.1571 26.1252C61.3396 25.9494 61.5466 25.8261 61.7733 25.7565C62.0048 25.6857 62.2608 25.6625 62.4422 25.6625C62.7031 25.6625 62.9898 25.7296 62.9898 25.7296C63.0852 25.7406 63.1392 25.682 63.171 25.5953C63.2568 25.3682 63.4994 24.6881 63.546 24.5526Z" fill="white"/>
<path d="M51.2537 21.1182C51.0944 21.0693 50.9499 21.0363 50.7612 21.001C50.57 20.9668 50.3422 20.9496 50.0837 20.9496C49.182 20.9496 48.4714 21.2036 47.9729 21.7042C47.4767 22.2024 47.1398 22.9606 46.9707 23.9582L46.9094 24.294H45.7775C45.7775 24.294 45.6403 24.2891 45.6109 24.4381L45.426 25.4723C45.4125 25.57 45.4554 25.6322 45.5876 25.6322H46.689L45.5717 31.8495C45.4847 32.3502 45.3842 32.7617 45.2727 33.0742C45.1637 33.3819 45.0572 33.6127 44.9249 33.7812C44.7975 33.9424 44.6774 34.062 44.469 34.1316C44.2976 34.189 44.0991 34.2158 43.8823 34.2158C43.7622 34.2158 43.6018 34.1962 43.4829 34.1718C43.3653 34.1486 43.3028 34.123 43.2134 34.0851C43.2134 34.0851 43.0848 34.0363 43.0333 34.1645C42.9928 34.2707 42.6988 35.0753 42.6633 35.1743C42.629 35.2731 42.678 35.3501 42.7404 35.3733C42.8875 35.4246 42.9964 35.4587 43.1962 35.5063C43.4731 35.5711 43.707 35.5747 43.9263 35.5747C44.3844 35.5747 44.8034 35.51 45.1501 35.3855C45.4981 35.2598 45.8018 35.0411 46.0714 34.7457C46.3617 34.4258 46.5442 34.0912 46.7183 33.6334C46.891 33.1816 47.0393 32.6199 47.1568 31.9655L48.2802 25.6322H49.9218C49.9218 25.6322 50.0602 25.6371 50.0885 25.4869L50.2746 24.454C50.2869 24.3551 50.2452 24.2941 50.1116 24.2941H48.5178C48.5264 24.2587 48.5987 23.6994 48.7813 23.1732C48.8597 22.9498 49.0066 22.7678 49.1304 22.6433C49.253 22.5212 49.3939 22.4345 49.5483 22.3844C49.7063 22.3331 49.8864 22.3087 50.0837 22.3087C50.2331 22.3087 50.3813 22.3258 50.4927 22.349C50.6471 22.382 50.7071 22.3991 50.7476 22.4113C50.9106 22.4602 50.9326 22.4125 50.9645 22.3345L51.3455 21.2917C51.3847 21.1792 51.2879 21.1315 51.2537 21.1182ZM28.9849 31.863C28.9849 31.9461 28.9249 32.0132 28.8415 32.0132H27.5197C27.4364 32.0132 27.3776 31.9461 27.3776 31.863V21.2598C27.3776 21.1768 27.4364 21.1097 27.5197 21.1097H28.8415C28.9249 21.1097 28.9849 21.1768 28.9849 21.2598V31.863Z" fill="white"/>
</g>
<defs>
<clipPath id="clip0">
<rect width="86" height="60" fill="white"/>
</clipPath>
</defs>
</svg>
